<svg width="41" height="41" viewBox="0 0 41 41" fill="none" xmlns="http://www.w3.org/2000/svg">
<g clip-path="url(#clip0_3_139)">
<path d="M15.0655 0.704871H4.27639C2.23765 0.704871 0.579993 2.36253 0.579993 4.40127V15.1904C0.579993 17.229 2.23765 18.8868 4.27639 18.8868H15.0655C17.1041 18.8868 18.7619 17.2291 18.7619 15.1904V4.40127C18.7618 2.36253 17.1041 0.704871 15.0655 0.704871ZM16.7636 15.1904C16.7636 16.1264 16.0015 16.8885 15.0655 16.8885H4.27639C3.34037 16.8885 2.57823 16.1264 2.57823 15.1904V4.40127C2.57823 3.46525 3.34037 2.70311 4.27639 2.70311H15.0655C16.0015 2.70311 16.7636 3.46525 16.7636 4.40127V15.1904Z" fill="#3D3D3F" stroke="#3D3D3F" stroke-width="0.2"/>
<path d="M36.2255 0.704871H25.4364C23.3977 0.704871 21.74 2.36253 21.74 4.40127V15.1904C21.74 17.229 23.3977 18.8868 25.4364 18.8868H36.2255C38.2641 18.8868 39.9219 17.2291 39.9219 15.1904V4.40127C39.9218 2.36253 38.2641 0.704871 36.2255 0.704871ZM37.9236 15.1904C37.9236 16.1264 37.1615 16.8885 36.2255 16.8885H25.4364C24.5004 16.8885 23.7382 16.1264 23.7382 15.1904V4.40127C23.7382 3.46525 24.5004 2.70311 25.4364 2.70311H36.2255C37.1615 2.70311 37.9236 3.46525 37.9236 4.40127V15.1904Z" fill="#3D3D3F" stroke="#3D3D3F" stroke-width="0.2"/>
<path d="M15.0655 22.2831H4.27639C2.23765 22.2831 0.579993 23.9407 0.579993 25.9795V36.7685C0.579993 38.8072 2.23765 40.4649 4.27639 40.4649H15.0655C17.1041 40.4649 18.7619 38.8073 18.7619 36.7685V25.9795C18.7618 23.9407 17.1041 22.2831 15.0655 22.2831ZM16.7636 36.7685C16.7636 37.7046 16.0015 38.4667 15.0655 38.4667H4.27639C3.34037 38.4667 2.57823 37.7046 2.57823 36.7685V25.9795C2.57823 25.0434 3.34037 24.2813 4.27639 24.2813H15.0655C16.0015 24.2813 16.7636 25.0434 16.7636 25.9795V36.7685Z" fill="#3D3D3F" stroke="#3D3D3F" stroke-width="0.2"/>
<path d="M36.2255 22.2831H25.4364C23.3977 22.2831 21.74 23.9407 21.74 25.9795V36.7685C21.74 38.8072 23.3977 40.4649 25.4364 40.4649H36.2255C38.2641 40.4649 39.9219 38.8073 39.9219 36.7685V25.9795C39.9218 23.9407 38.2641 22.2831 36.2255 22.2831ZM37.9236 36.7685C37.9236 37.7046 37.1615 38.4667 36.2255 38.4667H25.4364C24.5004 38.4667 23.7382 37.7046 23.7382 36.7685V25.9795C23.7382 25.0434 24.5004 24.2813 25.4364 24.2813H36.2255C37.1615 24.2813 37.9236 25.0434 37.9236 25.9795V36.7685Z" fill="#3D3D3F" stroke="#3D3D3F" stroke-width="0.2"/>
</g>
<defs>
<clipPath id="clip0_3_139">
<rect x="0.679993" y="0.804871" width="39.56" height="39.56" rx="3" fill="white"/>
</clipPath>
</defs>
</svg>
