<svg width="50" height="51" viewBox="0 0 50 51" fill="none" xmlns="http://www.w3.org/2000/svg">
<g clip-path="url(#clip0_3_115)">
<path d="M43.6691 6.62712H43.0759C44.2067 4.78605 43.7891 2.31432 41.9742 0.967763C40.0187 -0.482989 37.2397 -0.0160065 35.875 2.02341L32.7944 6.62722H6.33038C4.15513 6.62722 2.38544 8.39691 2.38544 10.5722V35.7937C2.38544 37.969 4.15513 39.7387 6.33038 39.7387H21.6537L20.4959 44.6016H17.997C16.3685 44.6016 15.0435 45.9264 15.0435 47.555V48.1717H11.963C11.4236 48.1717 10.9864 48.609 10.9864 49.1483C10.9864 49.6875 11.4236 50.1248 11.963 50.1248H38.0366C38.5759 50.1248 39.0131 49.6875 39.0131 49.1483C39.0131 48.609 38.5759 48.1717 38.0366 48.1717H34.9561V47.555C34.9561 45.9264 33.6311 44.6016 32.0025 44.6016H29.5037L28.3459 39.7387H43.6692C45.8445 39.7387 47.6141 37.969 47.6141 35.7937V30.244V10.5721C47.6141 8.39682 45.8445 6.62712 43.6691 6.62712ZM29.677 23.7947C28.1502 24.8635 25.2898 23.4107 22.5582 24.8683C21.8917 21.4059 22.3119 18.1497 25.7811 17.4309C26.2294 17.3375 26.7121 17.2952 27.123 17.3034C28.2972 18.1746 29.4849 19.0557 30.6558 19.9245C31.1684 21.4155 30.976 22.8854 29.677 23.7947ZM30.6612 13.3273L33.4255 15.3782L31.2996 17.9701C30.4244 17.3208 29.6721 16.7626 28.7969 16.1132C28.9787 15.8416 30.495 13.5754 30.6612 13.3273ZM37.4983 3.10962C38.238 2.00407 39.7464 1.74685 40.8105 2.53638C41.8749 3.32602 42.0655 4.84415 41.2221 5.87255C39.7255 7.69703 36.1676 12.0349 34.6654 13.8664L31.7484 11.7022L37.4983 3.10962ZM33.0029 47.555V48.1717H16.9966V47.555C16.9966 47.0035 17.4454 46.5547 17.997 46.5547H32.0024C32.5541 46.5547 33.0029 47.0035 33.0029 47.555ZM27.4959 44.6016H22.5036L23.6614 39.7387H26.3381L27.4959 44.6016ZM45.6611 35.7937C45.6611 36.8921 44.7675 37.7856 43.6692 37.7856C42.119 37.7856 8.07341 37.7856 6.33048 37.7856C5.23216 37.7856 4.33862 36.8921 4.33862 35.7937V31.2206H7.12919C7.66854 31.2206 8.10574 30.7833 8.10574 30.244C8.10574 29.7048 7.66854 29.2675 7.12919 29.2675H4.33843V10.5721C4.33843 9.47375 5.23196 8.58021 6.33028 8.58021H31.4875C30.552 9.97833 27.8226 14.0572 26.9581 15.349C25.0444 15.3663 23.1338 16.033 21.883 17.4931C20.181 19.4799 19.882 22.6017 20.9943 26.7717C21.1844 27.4848 22.0741 27.7403 22.6125 27.226C25.1375 24.8133 28.2824 27.4451 31.0986 25.1656C32.8178 23.7741 33.2246 21.5618 32.5764 19.4931C33.4526 18.4247 40.6489 9.65109 41.5272 8.58021H43.669C44.7673 8.58021 45.6609 9.47375 45.6609 10.5721V29.2674H14.9413C14.402 29.2674 13.9648 29.7047 13.9648 30.2439C13.9648 30.7832 14.402 31.2205 14.9413 31.2205H45.6611V35.7937Z" fill="#3D3D3F"/>
<path d="M10.8463 29.2863C10.3761 29.3824 10.0611 29.7888 10.0611 30.2444C10.0611 30.8553 10.6196 31.323 11.2281 31.2015C11.7688 31.0917 12.0982 30.5706 11.9947 30.053C11.886 29.5188 11.3678 29.1813 10.8463 29.2863Z" fill="#3D3D3F"/>
</g>
<defs>
<clipPath id="clip0_3_115">
<rect width="50" height="50" fill="white" transform="translate(0 0.124878)"/>
</clipPath>
</defs>
</svg>
